<?xml version="1.0" encoding="utf-8"?>
<!-- Generator: Adobe Illustrator 24.1.0, SVG Export Plug-In . SVG Version: 6.00 Build 0)  -->
<svg version="1.1" id="Layer_1" xmlns="http://www.w3.org/2000/svg" xmlns:xlink="http://www.w3.org/1999/xlink" x="0px" y="0px"
	 viewBox="0 0 32 32" style="enable-background:new 0 0 32 32;" xml:space="preserve">
<style type="text/css">
	.st0{fill:#EAD900;}
</style>
<g>
	<circle class="st0" cx="16" cy="16" r="5.9"/>
	<path class="st0" d="M16,8.7c0.4,0,0.7-0.3,0.7-0.7V6.4c0-0.4-0.3-0.7-0.7-0.7c-0.4,0-0.7,0.3-0.7,0.7v1.5
		C15.3,8.3,15.6,8.7,16,8.7z M9.8,10.8c0.3,0.3,0.8,0.3,1,0s0.3-0.8,0-1l-1-1C9.5,8.5,9,8.5,8.7,8.8c-0.2,0.3-0.2,0.7,0,1L9.8,10.8z
		 M6.4,16.7h1.5c0.4,0,0.7-0.3,0.7-0.7c0-0.4-0.3-0.7-0.7-0.7H6.4c-0.4,0-0.7,0.3-0.7,0.7C5.7,16.4,6,16.7,6.4,16.7z M9.8,21.2l-1,1
		c-0.3,0.3-0.3,0.7-0.1,1s0.7,0.3,1,0.1c0,0,0.1-0.1,0.1-0.1l1-1c0.3-0.3,0.2-0.8-0.1-1C10.4,21,10,21,9.8,21.2L9.8,21.2z
		 M15.3,24.1v1.5c0,0.4,0.3,0.7,0.7,0.7c0.4,0,0.7-0.3,0.7-0.7v-1.5c0-0.4-0.3-0.7-0.7-0.7C15.6,23.3,15.3,23.7,15.3,24.1z
		 M21.2,21.2c-0.3,0.3-0.3,0.7,0,1l1,1c0.3,0.3,0.8,0.2,1-0.1c0.2-0.3,0.2-0.7,0-1l-1-1C21.9,20.9,21.5,20.9,21.2,21.2z M25.6,15.3
		h-1.5c-0.4,0-0.7,0.3-0.7,0.7c0,0.4,0.3,0.7,0.7,0.7h1.5c0.4,0,0.7-0.3,0.7-0.7C26.3,15.6,26,15.3,25.6,15.3z M21.7,11
		c0.2,0,0.4-0.1,0.5-0.2l1-1c0.3-0.3,0.2-0.8-0.1-1c-0.3-0.2-0.7-0.2-1,0l-1,1c-0.3,0.3-0.3,0.8,0,1C21.3,10.9,21.5,11,21.7,11z"/>
</g>
</svg>
