<?xml version="1.0" encoding="utf-8"?>
<!-- Generator: Adobe Illustrator 24.1.0, SVG Export Plug-In . SVG Version: 6.00 Build 0)  -->
<svg version="1.1" id="Layer_1" xmlns="http://www.w3.org/2000/svg" xmlns:xlink="http://www.w3.org/1999/xlink" x="0px" y="0px"
	 viewBox="0 0 57 45" style="enable-background:new 0 0 57 45;" xml:space="preserve">
<style type="text/css">
	.st0{fill:none;}
</style>
<g>
	<path class="st0" d="M41.4,7.3c-3.4-3.4-8.6-5.1-15.8-5.1c-6,0-10.3,2.6-13.1,6.2c-2.8,3.7-4.2,8.5-4.2,12.9v0
		c-0.2,11.5,8.4,21.8,19.8,21.5C33,42.8,37.6,41.1,41,38c3.4-3.2,5.6-7.9,5.6-14.4C46.6,16,44.8,10.7,41.4,7.3z"/>
	<path d="M42.5,6.4c-3.8-3.8-9.4-5.5-16.9-5.5c-6.5,0-11.2,2.8-14.3,6.8c-3,3.9-4.4,9-4.5,13.6l0,0l0,0c-0.2,12,8.8,23.1,21.3,22.9
		h0c5.2-0.1,10.2-1.9,13.9-5.3c3.7-3.4,6-8.5,6-15.3C48,15.9,46.3,10.2,42.5,6.4z M41,38c-3.4,3.2-8,4.8-12.9,4.9
		c-11.4,0.3-20-10-19.8-21.5v0c0.1-4.4,1.4-9.2,4.2-12.9c2.8-3.7,7.1-6.2,13.1-6.2c7.3,0,12.4,1.7,15.8,5.1
		c3.4,3.4,5.1,8.8,5.1,16.3C46.6,30.1,44.3,34.8,41,38z"/>
</g>
<path d="M56.5,33.8c-0.2-0.3-0.7-0.4-1-0.2c-3.4,1.9-7.2,1.1-9.8-0.6c-1.5-1-7.3-6.3-10.1-6.3h0l0,0c-3.7-0.1-4.7,4.1-7.8,4
	c-1.5-0.1-3.8-2.1-5.1-3l0,0c-0.6-0.4-1.4-0.8-2.3-0.9c-2-0.2-2.2,0.3-9.9,6.5h0l0,0c-1.9,1.5-3.5,2-4.9,1.9
	c-1.4-0.1-2.9-0.7-4.5-1.5c-0.3-0.2-0.8-0.1-1,0.2c-0.2,0.3-0.1,0.7,0.3,0.9c6,2.9,8.1,1.7,12.7-2c6.1-4.9,6.5-5.7,8.7-4.2
	c0,0,0,0,0,0c0,0,2,1.3,2.6,1.8c0.9,0.7,3.9,3.6,8.5-1.2c1.4-1.5,2.9-1.4,4.2-0.8c3,1.4,4.7,3.4,6.7,4.9c4.2,3.2,7.8,4,12.5,1.3
	C56.6,34.4,56.7,34,56.5,33.8z"/>
</svg>
