<svg width="57" height="45" viewBox="0 0 57 45" fill="none" xmlns="http://www.w3.org/2000/svg">
<path fill-rule="evenodd" clip-rule="evenodd" d="M12.5502 8.42989C9.7282 12.1185 8.38388 16.9333 8.30441 21.3579L8.30441 21.3581C8.09198 32.8779 16.7467 43.1588 28.1149 42.8958C32.9916 42.7779 37.5897 41.1485 40.9683 37.9806C44.3432 34.8162 46.5566 30.064 46.5566 23.6079C46.5566 16.042 44.8412 10.7199 41.4419 7.28837C38.0587 3.87306 32.8812 2.20599 25.6262 2.20599C19.6147 2.20599 15.3544 4.76457 12.5502 8.42989ZM11.3619 7.69132C14.3992 3.72126 19.0795 0.904968 25.6262 0.904968C33.1126 0.904968 38.7612 2.62869 42.5187 6.42188C46.2601 10.1988 48 15.9029 48 23.6079C48 30.3409 45.6845 35.4358 42.0089 38.8822C38.337 42.3252 33.3631 44.0704 28.1536 44.1964L28.1528 44.1964C15.6681 44.4858 6.64067 33.3002 6.86113 21.3368M11.3619 7.69132C8.3424 11.638 6.94411 16.719 6.86113 21.3365Z" fill="black"/>
<path fill-rule="evenodd" clip-rule="evenodd" d="M33.5966 28.5809C33.5902 28.587 33.5828 28.594 33.5744 28.6019C33.5418 28.6325 33.4941 28.6767 33.4311 28.7338C33.3052 28.848 33.1178 29.0137 32.8668 29.2253C32.3649 29.6484 31.6087 30.2549 30.5799 30.9992C29.6129 31.7041 28.5948 31.9642 27.638 31.9121C26.6996 31.861 25.8787 31.5135 25.2638 31.0889C25.2633 31.0886 25.2628 31.0882 25.2623 31.0879L21.733 28.6751C21.7328 28.675 21.7327 28.6749 21.7325 28.6747C21.2122 28.3207 20.6853 28.0939 20.181 28.0382C19.7081 27.986 19.1958 28.0766 18.641 28.456C18.5261 28.548 18.2044 28.8038 17.7361 29.1762C16.3757 30.258 13.7779 32.3237 11.4173 34.2156L11.4171 34.2157C9.29576 35.9149 7.37983 36.543 5.49854 36.4637C3.67151 36.3866 1.99483 35.6405 0.372942 34.8554C0.0230166 34.686 -0.103059 34.3016 0.0913438 33.9967C0.285747 33.6918 0.727012 33.5819 1.07694 33.7513C2.71668 34.545 4.12044 35.141 5.56863 35.2021C6.96252 35.2609 8.51657 34.8233 10.4359 33.2859M33.5966 28.5809C34.1437 28.1651 34.8284 27.929 35.4988 27.9404C36.0293 27.953 36.5701 28.1104 37.0317 28.3949L44.6974 33.8798C44.6979 33.8801 44.6984 33.8805 44.6989 33.8809C44.7113 33.8908 44.7284 33.9043 44.7501 33.921C44.7936 33.9544 44.8556 34.001 44.9353 34.0579C45.0945 34.1715 45.3249 34.3267 45.6186 34.5006C46.2045 34.8474 47.0519 35.2741 48.0979 35.5907C50.2094 36.2297 53.1207 36.4122 56.2442 34.6261C56.5789 34.4347 56.6721 34.0432 56.4525 33.7516C56.2329 33.46 55.7835 33.3787 55.4489 33.5701C52.7739 35.0996 50.3489 34.9348 48.5735 34.3975C47.6761 34.1259 46.9425 33.7573 46.4333 33.4558C46.1795 33.3056 45.9837 33.1734 45.8537 33.0806C45.7888 33.0343 45.7405 32.998 45.7097 32.9743C45.6943 32.9625 45.6834 32.9538 45.6769 32.9487L45.6714 32.9442L45.6709 32.9438L45.6707 32.9437L45.6706 32.9436L45.6702 32.9432L45.6531 32.9292L37.9146 27.3923L37.8957 27.3804C37.2022 26.9461 36.3738 26.697 35.5348 26.6777L35.5326 26.6777L35.5305 26.6776C34.4367 26.6582 33.3941 27.0457 32.6051 27.6587L32.5749 27.6822L32.5483 27.7081L32.5481 27.7083L32.5479 27.7085L32.5472 27.7091L32.541 27.7151C32.535 27.7208 32.5253 27.73 32.5119 27.7426C32.485 27.7679 32.4432 27.8067 32.3862 27.8584C32.2721 27.9618 32.097 28.1167 31.8588 28.3176C31.3823 28.7193 30.653 29.3046 29.6529 30.0282L29.6518 30.029L29.6507 30.0298C28.951 30.54 28.2934 30.6823 27.7285 30.6515C27.1456 30.6198 26.599 30.3995 26.1631 30.0982L26.1616 30.0972L22.6267 27.6806L22.6255 27.6797C21.9862 27.2446 21.2178 26.8795 20.3632 26.7851C19.4814 26.6878 18.5764 26.8872 17.7237 27.4778L17.6914 27.5002L17.6622 27.5256C17.6665 27.5218 17.5717 27.5972 17.3828 27.7474C17.2851 27.8251 17.1622 27.9228 17.0149 28.04L16.9575 28.0855C16.5453 28.4133 15.9799 28.8627 15.319 29.3886C13.9348 30.49 12.1312 31.9273 10.4361 33.2858" fill="black"/>
</svg>
